<?xml version="1.0" encoding="UTF-8"?>
<svg xmlns="http://www.w3.org/2000/svg" viewBox="0 0 1500 1130" font-family="-apple-system, BlinkMacSystemFont, 'Segoe UI', Roboto, Helvetica, Arial, sans-serif">
  <rect width="1500" height="1130" fill="#f7f7f5"/>

  <text x="40" y="52" font-size="30" font-weight="700" fill="#111">ESP32-C6 full-pin routing for Waveshare 9-wire harness</text>
  <text x="40" y="80" font-size="15" fill="#555">All C6 board pins are shown. Only the 9 display wires are routed and color-coded.</text>

  <g>
    <rect x="60" y="130" width="360" height="600" rx="12" fill="#1f5f3a" stroke="#0d3f20" stroke-width="2"/>
    <text x="240" y="170" text-anchor="middle" font-size="24" font-weight="700" fill="#e9f7ec">Waveshare HAT (B)</text>
    <text x="240" y="194" text-anchor="middle" font-size="14" fill="#c8e8d0">9-pin connector (top to bottom)</text>

    <g font-size="17" font-weight="700" fill="#fff">
      <text x="96" y="270">PWR</text>
      <text x="96" y="322">BUSY</text>
      <text x="96" y="374">RST</text>
      <text x="96" y="426">DC</text>
      <text x="96" y="478">CS</text>
      <text x="96" y="530">CLK</text>
      <text x="96" y="582">DIN</text>
      <text x="96" y="634">GND</text>
      <text x="96" y="686">VCC</text>
    </g>

    <g>
      <circle cx="332" cy="266" r="8" fill="#8b4513"/>
      <circle cx="332" cy="318" r="8" fill="#ffffff" stroke="#333"/>
      <circle cx="332" cy="370" r="8" fill="#8e44ad"/>
      <circle cx="332" cy="422" r="8" fill="#27ae60"/>
      <circle cx="332" cy="474" r="8" fill="#e67e22"/>
      <circle cx="332" cy="526" r="8" fill="#e0c50a"/>
      <circle cx="332" cy="578" r="8" fill="#1e6fd9"/>
      <circle cx="332" cy="630" r="8" fill="#111"/>
      <circle cx="332" cy="682" r="8" fill="#d62828"/>
    </g>

    <g font-size="15" font-weight="700" fill="#f3f6fb">
      <text x="350" y="270">1</text>
      <text x="350" y="322">2</text>
      <text x="350" y="374">3</text>
      <text x="350" y="426">4</text>
      <text x="350" y="478">5</text>
      <text x="350" y="530">6</text>
      <text x="350" y="582">7</text>
      <text x="350" y="634">8</text>
      <text x="350" y="686">9</text>
    </g>
  </g>

  <g transform="translate(760,110)">
    <rect x="0" y="0" width="650" height="760" rx="14" fill="#1f3a5f" stroke="#0d203f" stroke-width="2"/>
    <text x="325" y="42" text-anchor="middle" font-size="24" font-weight="700" fill="#e9eef7">ESP32-C6 board (full pin view)</text>
    <text x="325" y="66" text-anchor="middle" font-size="14" fill="#c8d3e8">Legacy C6 pin order used by the project wiring</text>

    <text x="110" y="96" font-size="14" fill="#9fb0c9">Left rail</text>
    <text x="520" y="96" font-size="14" fill="#9fb0c9">Right rail</text>

    <rect x="235" y="100" width="180" height="620" rx="10" fill="#0d203f" stroke="#4a6a90"/>
    <text x="325" y="140" text-anchor="middle" font-size="14" fill="#a8b8cc">ESP32-C6 module area</text>

    <!-- left rail 15 pins -->
    <g font-size="14" fill="#d0d8e5" text-anchor="end">
      <text x="200" y="126">GND</text>
      <text x="200" y="164">5V</text>
      <text x="200" y="202">GPIO3</text>
      <text x="200" y="240">GPIO2</text>
      <text x="200" y="278">GPIO11</text>
      <text x="200" y="316">GPIO10</text>
      <text x="200" y="354">GPIO8</text>
      <text x="200" y="392">GPIO1</text>
      <text x="200" y="430">GPIO0</text>
      <text x="200" y="468">GPIO7</text>
      <text x="200" y="506">GPIO6</text>
      <text x="200" y="544">GPIO5</text>
      <text x="200" y="582">GPIO4</text>
      <text x="200" y="620">RST/EN</text>
      <text x="200" y="658">3V3</text>
    </g>

    <!-- right rail 15 pins -->
    <g font-size="14" fill="#d0d8e5">
      <text x="450" y="126">GND</text>
      <text x="450" y="164">GPIO12</text>
      <text x="450" y="202">GPIO13</text>
      <text x="450" y="240">GND</text>
      <text x="450" y="278">GPIO9</text>
      <text x="450" y="316">GPIO18</text>
      <text x="450" y="354">GPIO19</text>
      <text x="450" y="392">GPIO20</text>
      <text x="450" y="430">GPIO21</text>
      <text x="450" y="468">GPIO22</text>
      <text x="450" y="506">GPIO23</text>
      <text x="450" y="544">GPIO15</text>
      <text x="450" y="582">RX (IO17)</text>
      <text x="450" y="620">TX (IO16)</text>
      <text x="450" y="658">GND</text>
    </g>

    <!-- routed endpoint dots -->
    <g>
      <circle cx="215" y="392" r="6" fill="#8b4513"/>
      <circle cx="215" y="240" r="6" fill="#ffffff" stroke="#333"/>
      <circle cx="215" y="202" r="6" fill="#8e44ad"/>
      <circle cx="215" y="582" r="6" fill="#27ae60"/>
      <circle cx="215" y="544" r="6" fill="#e67e22"/>
      <circle cx="215" y="506" r="6" fill="#e0c50a"/>
      <circle cx="215" y="468" r="6" fill="#1e6fd9"/>
      <circle cx="215" y="126" r="6" fill="#111111"/>
      <circle cx="215" y="658" r="6" fill="#d62828"/>
    </g>

    <g font-size="12" font-weight="700" fill="#111">
      <text x="224" y="396">1</text>
      <text x="224" y="244">2</text>
      <text x="224" y="206">3</text>
      <text x="224" y="586">4</text>
      <text x="224" y="548">5</text>
      <text x="224" y="510">6</text>
      <text x="224" y="472">7</text>
      <text x="224" y="130">8</text>
      <text x="224" y="662">9</text>
    </g>

    <g font-size="15" font-weight="700" fill="#ffe08a">
      <text x="128" y="126">GND (used #8)</text>
      <text x="128" y="392">GPIO1 (used #1)</text>
      <text x="128" y="240">GPIO2 (used #2)</text>
      <text x="128" y="202">GPIO3 (used #3)</text>
      <text x="128" y="582">GPIO4 (used #4)</text>
      <text x="128" y="544">GPIO5 (used #5)</text>
      <text x="128" y="506">GPIO6 (used #6)</text>
      <text x="128" y="468">GPIO7 (used #7)</text>
      <text x="128" y="658">3V3 (used #9)</text>
    </g>
  </g>

  <g fill="none" stroke-linecap="round" stroke-width="7">
    <path d="M420 266 C 560 266, 700 266, 975 502" stroke="#8b4513"/>
    <path d="M420 318 C 560 318, 700 318, 975 350" stroke="#333" stroke-width="9"/>
    <path d="M420 318 C 560 318, 700 318, 975 350" stroke="#ffffff"/>
    <path d="M420 370 C 560 370, 700 370, 975 312" stroke="#8e44ad"/>
    <path d="M420 422 C 560 422, 700 422, 975 692" stroke="#27ae60"/>
    <path d="M420 474 C 560 474, 700 474, 975 654" stroke="#e67e22"/>
    <path d="M420 526 C 560 526, 700 526, 975 616" stroke="#e0c50a"/>
    <path d="M420 578 C 560 578, 700 578, 975 578" stroke="#1e6fd9"/>
    <path d="M420 630 C 560 630, 700 630, 975 236" stroke="#111111"/>
    <path d="M420 682 C 560 682, 700 682, 975 768" stroke="#d62828"/>
  </g>

  <g font-size="14" font-weight="700" text-anchor="middle">
    <text x="650" y="256" fill="#8b4513">Brown</text>
    <text x="650" y="308" fill="#666">White</text>
    <text x="650" y="360" fill="#8e44ad">Purple</text>
    <text x="650" y="412" fill="#27ae60">Green</text>
    <text x="650" y="464" fill="#e67e22">Orange</text>
    <text x="650" y="516" fill="#b39a00">Yellow</text>
    <text x="650" y="568" fill="#1e6fd9">Blue</text>
    <text x="650" y="620" fill="#111">Black</text>
    <text x="650" y="672" fill="#d62828">Red</text>
  </g>

  <g transform="translate(60,888)">
    <rect width="1380" height="72" rx="10" fill="#fff" stroke="#ddd"/>
    <text x="18" y="28" font-size="15" font-weight="700" fill="#222">Color names</text>
    <text x="18" y="52" font-size="13" fill="#444">Brown=PWR, White=BUSY, Purple=RST, Green=DC, Orange=CS, Yellow=CLK, Blue=DIN, Black=GND, Red=VCC(3V3)</text>
  </g>

  <g transform="translate(60,972)">
    <rect width="1380" height="136" rx="10" fill="#ffffff" stroke="#d7d7d7"/>
    <text x="18" y="26" font-size="16" font-weight="700" fill="#222">Quick wiring checklist (C6)</text>
    <text x="18" y="52" font-size="14" fill="#333">1 Brown PWR → GPIO1   2 White BUSY → GPIO2   3 Purple RST → GPIO3   4 Green DC → GPIO4   5 Orange CS → GPIO5</text>
    <text x="18" y="78" font-size="14" fill="#333">6 Yellow CLK → GPIO6   7 Blue DIN → GPIO7   8 Black GND → GND   9 Red VCC → 3V3</text>
    <text x="18" y="104" font-size="13" fill="#666">Tip: wire one row at a time from top-to-bottom on the Waveshare connector to avoid crossing mistakes.</text>
  </g>
</svg>
